<svg id="Capa_1" enable-background="new 0 0 511.954 511.954" height="512" viewBox="0 0 511.954 511.954" width="512" xmlns="http://www.w3.org/2000/svg"><g><g><path d="m499.428 398.627c-1.753 15.99-14.705 28.482-30.754 29.605-1.328.094-2.646.187-3.965.272-9.786.664-17.394 8.79-17.394 18.602v37.085c0 12.475-14.279 19.555-24.201 11.999-18.108-13.794-42.199-34.311-56.98-55.585-3.497-5.038-9.275-7.974-15.411-7.94-45.509.23-91.019-1.234-136.529-4.433-12.688-.885-23.461-8.858-28.26-20.074-1.276-2.944-2.127-6.127-2.493-9.454-6.74-61.567-6.74-123.143 0-184.719 1.753-15.973 14.713-28.405 30.737-29.528 67.796-4.757 135.584-5.71 203.372-2.859 17.036.706 34.081 1.659 51.117 2.859 16.032 1.123 29.001 13.556 30.754 29.528 6.738 61.55 6.738 123.092.007 184.642z" fill="#78d0b1"/><path d="m200.801 212.292c-6.902 63.04-6.902 126.086 0 189.113.374 3.412 1.247 6.666 2.552 9.684 3.34 7.808 9.507 14.08 17.197 17.577-2.119-.138-4.238-.282-6.358-.433-12.689-.886-23.463-8.858-28.259-20.077-1.279-2.946-2.132-6.128-2.493-9.455-6.745-61.563-6.745-123.14 0-184.717 1.752-15.97 14.71-28.403 30.733-29.525 3.13-.216 6.259-.433 9.396-.63-12.205 4.2-21.305 15.131-22.768 28.463z" fill="#66b49d"/><g><path d="m309.11 375.64c.02 10.034 8.16 18.158 18.194 18.158h77.662c8.075 0 14.621-6.546 14.621-14.626 0-4.037-1.632-7.697-4.278-10.343s-6.306-4.283-10.343-4.283h5.249c8.075 0 14.626-6.542 14.626-14.626 0-4.042-1.632-7.693-4.287-10.343-2.641-2.646-6.296-4.278-10.339-4.278h5.254c7.976 0 14.461-6.391 14.616-14.333.165-8.207-6.74-14.918-14.947-14.918h-4.924c8.075 0 14.626-6.546 14.626-14.63 0-4.042-1.632-7.693-4.287-10.343-2.641-2.646-6.296-4.278-10.339-4.278h-41.134c-.059-.092-.076-.12-.135-.212l16.041-34.171c4.551-9.688.382-21.229-9.306-25.78-2.66-1.25-5.462-1.839-8.221-1.839-7.282 0-14.258 4.122-17.559 11.15l-6.858 14.612c-4.051 8.626-10.541 15.918-18.757 20.738-5.424 3.179-9.942 8.027-12.701 14.234-1.882 4.235-2.726 8.697-2.646 13.079z" fill="#ffddce"/><g fill="#ffcbbe"><path d="m381.675 221.015c-.66-.071-1.321-.104-1.981-.104-7.282 0-14.258 4.122-17.559 11.15l-6.858 14.612c-4.051 8.626-10.541 15.918-18.757 20.738-5.424 3.179-24.936 8.117-25.658 45.08-.057 2.886-1.099 5.551-1.863 8.211l-.061-32.096c-.08-4.382.764-8.843 2.646-13.079 2.759-6.207 7.277-11.055 12.701-14.234 8.216-4.82 14.706-12.112 18.757-20.738l6.858-14.612c3.302-7.028 10.277-11.15 17.559-11.15 2.759 0 5.561.59 8.221 1.839 2.335 1.095 4.349 2.6 5.995 4.383z"/><path d="m419.586 379.172c0 8.079-6.546 14.626-14.621 14.626h-79.689c-8.433 0-16.253-4.075-21.092-10.772h100.782c6.174 0 11.452-3.825 13.598-9.24.005.005.005.014.014.019 0 0-.005.005 0 .005.65 1.66 1.008 3.471 1.008 5.362z"/><path d="m423.808 344.534c.66 1.668 1.027 3.484 1.027 5.386 0 8.083-6.546 14.629-14.622 14.629h-5.604c-2.975 0-5.386-2.412-5.386-5.386 0-2.975 2.412-5.386 5.386-5.386h5.604c6.175-.001 11.451-3.829 13.595-9.243z"/><path d="m429.062 315.283c.66 1.668 1.027 3.484 1.027 5.386 0 8.083-6.546 14.629-14.622 14.629h-5.604c-2.975 0-5.386-2.411-5.386-5.386 0-2.975 2.411-5.386 5.386-5.386h5.604c6.175-.001 11.451-3.829 13.595-9.243z"/><path d="m423.814 286.032c.66 1.668 1.027 3.484 1.027 5.386 0 8.083-6.546 14.629-14.622 14.629h-5.604c-2.975 0-5.386-2.411-5.386-5.386 0-2.975 2.412-5.386 5.386-5.386h5.604c6.175-.001 11.451-3.829 13.595-9.243z"/></g><path d="m263.449 288.606v91.205c0 6.326 5.128 11.453 11.453 11.453h22.583c6.326 0 11.453-5.128 11.453-11.453v-91.205c0-6.326-5.128-11.453-11.453-11.453h-22.583c-6.325 0-11.453 5.128-11.453 11.453z" fill="#f1f4f6"/><path d="m263.446 351.084v28.731c0 6.325 5.131 11.451 11.457 11.451h22.583c6.325 0 11.451-5.125 11.451-11.451v-28.731c0 6.325-5.125 11.457-11.451 11.457h-22.583c-6.325-.001-11.457-5.132-11.457-11.457z" fill="#d0e2e7"/></g><path d="m12.333 222.88c1.686 15.375 14.14 27.387 29.572 28.467 1.277.09 2.545.18 3.813.262 9.41.638 16.725 8.453 16.725 17.887v35.66c0 11.996 13.73 18.804 23.272 11.538 17.413-13.264 40.578-32.993 54.791-53.449 3.363-4.844 8.919-7.667 14.819-7.634 43.761.221 87.522-1.186 131.283-4.263 12.2-.851 22.56-8.518 27.175-19.303 1.227-2.831 2.046-5.891 2.397-9.091 6.481-59.202 6.481-118.411 0-177.621-1.686-15.359-14.148-27.314-29.556-28.394-65.191-4.574-130.374-5.491-195.557-2.749-16.382.679-32.771 1.596-49.153 2.749-15.416 1.08-27.887 13.035-29.572 28.394-6.482 59.184-6.482 118.361-.009 177.547z" fill="#f9da41"/><path d="m29.034 43.705c-6.637 60.617-6.637 121.241 0 181.846.36 3.281 1.199 6.41 2.454 9.312 3.211 7.508 9.142 13.539 16.536 16.902-2.038-.132-4.076-.271-6.113-.417-12.202-.852-22.561-8.517-27.173-19.306-1.23-2.833-2.05-5.893-2.397-9.091-6.486-59.198-6.486-118.408 0-177.619 1.685-15.356 14.145-27.312 29.552-28.391 3.009-.208 6.019-.416 9.035-.606-11.737 4.039-20.487 14.55-21.894 27.37z" fill="#edc932"/></g><g><path d="m506.868 213.167c-2.146-19.591-17.994-34.809-37.679-36.185-17.259-1.215-34.531-2.182-51.331-2.872-29.935-1.258-60.251-1.769-90.253-1.544 1.991-42.701.679-85.586-3.976-128.047-2.075-18.982-17.418-33.729-36.48-35.065-65.192-4.57-131.27-5.5-196.394-2.762-16.269.676-32.88 1.605-49.372 2.762-19.062 1.336-34.412 16.081-36.5 35.064-6.508 59.426-6.512 119.711-.011 179.184 2.092 19.018 17.447 33.788 36.506 35.122l3.838.272c5.457.365 9.731 4.932 9.731 10.396v35.659c0 8.427 4.688 15.983 12.237 19.721 3.119 1.545 6.46 2.305 9.78 2.305 4.707 0 9.371-1.529 13.294-4.518 7.449-5.669 14.538-11.445 21.07-17.167 3.115-2.729 3.429-7.468.699-10.583-2.729-3.116-7.468-3.429-10.583-.7-6.274 5.496-13.095 11.052-20.274 16.516-2.16 1.646-4.899 1.908-7.33.705-2.438-1.208-3.894-3.555-3.894-6.279v-35.659c0-13.332-10.423-24.473-23.701-25.361l-3.815-.271c-11.825-.827-21.351-9.995-22.647-21.793-6.383-58.386-6.379-117.573.01-175.913 1.294-11.767 10.815-20.909 22.64-21.738 16.351-1.147 32.817-2.068 48.949-2.738 64.565-2.713 130.081-1.793 194.718 2.738 11.819.829 21.332 9.969 22.619 21.735 6.4 58.392 6.4 117.602-.001 175.986-.263 2.408-.876 4.742-1.828 6.952-3.626 8.469-11.599 14.128-20.812 14.771-43.188 3.04-87.159 4.468-130.701 4.251-.059 0-.117 0-.175 0-8.346 0-16.132 4.048-20.854 10.848-3.315 4.767-7.366 9.798-12.04 14.956-2.781 3.069-2.548 7.812.521 10.594 3.068 2.781 7.812 2.549 10.594-.521 5.104-5.632 9.558-11.171 13.243-16.468 1.918-2.764 5.104-4.408 8.548-4.408h.073c5.558.028 11.123.028 16.692.003-2.292 45.3-.952 91.149 4.001 136.426.45 4.037 1.479 7.938 3.049 11.568 6.036 14.112 19.309 23.539 34.629 24.602 45.348 3.189 91.479 4.681 137.104 4.458h.075c3.67 0 7.081 1.76 9.136 4.72 15.428 22.201 40.379 43.396 58.593 57.265 4.029 3.07 8.816 4.64 13.648 4.64 3.408 0 6.838-.78 10.039-2.366 7.746-3.836 12.559-11.591 12.559-20.239v-37.08c0-5.84 4.565-10.724 10.401-11.117l.168-.011c1.281-.088 2.562-.175 3.812-.27 19.686-1.374 35.533-16.626 37.684-36.267.221-2.023.432-4.046.644-6.08.428-4.12-2.564-7.807-6.685-8.235-4.131-.431-7.807 2.565-8.235 6.685-.208 2.007-.417 4.004-.635 6-1.359 12.42-11.376 22.065-23.857 22.937-1.257.095-2.504.18-3.751.265l-.161.011c-13.674.922-24.385 12.379-24.385 26.083v37.08c0 2.949-1.576 5.49-4.215 6.797-2.635 1.304-5.603 1.019-7.941-.764-17.357-13.218-41.053-33.296-55.362-53.89-4.859-6.999-12.87-11.163-21.445-11.163-.058 0-.115 0-.173 0-45.249.226-90.99-1.259-135.971-4.422-9.687-.672-18.071-6.626-21.895-15.563-.989-2.29-1.636-4.748-1.92-7.291-4.897-44.77-6.196-90.121-3.881-134.917 33.473-.438 67.026-1.825 100.116-4.154 14.846-1.035 27.702-10.166 33.546-23.813 1.537-3.566 2.532-7.349 2.957-11.241 1.319-12.035 2.358-24.106 3.143-36.197 30.058-.242 60.452.262 90.463 1.523 16.661.685 33.786 1.643 50.904 2.848 12.444.87 22.461 10.481 23.817 22.854 5.36 48.956 6.414 98.559 3.131 147.429-.277 4.133 2.848 7.708 6.98 7.985.172.012.341.018.511.018 3.912 0 7.209-3.036 7.476-6.998 3.343-49.744 2.271-100.234-3.185-150.064z"/><path d="m437.583 321.117c.119-5.897-2.123-11.499-6.313-15.775-.74-.755-1.53-1.454-2.363-2.093 2.174-3.424 3.435-7.483 3.435-11.832 0-5.917-2.305-11.475-6.479-15.642-4.171-4.178-9.728-6.479-15.646-6.479h-29.563l11.123-23.694c6.302-13.413.513-29.454-12.905-35.758-3.604-1.692-7.442-2.551-11.409-2.551-10.378 0-19.936 6.069-24.349 15.463l-6.856 14.609c-3.482 7.414-8.934 13.451-15.762 17.457-6.639 3.891-11.86 9.599-15.208 16.531-2.382-1.081-5.017-1.698-7.799-1.698h-22.584c-10.45 0-18.951 8.501-18.951 18.952v91.207c0 10.45 8.501 18.951 18.951 18.951h22.584c3.568 0 6.897-1.009 9.75-2.731 5.34 3.422 11.55 5.264 18.039 5.264h79.69c12.197 0 22.12-9.926 22.12-22.126 0-2.728-.491-5.394-1.459-7.927-.024-.067-.05-.134-.076-.201-.502-1.267-1.111-2.473-1.825-3.612 5.237-4.05 8.615-10.394 8.615-17.511 0-4.231-1.179-8.28-3.378-11.768 5.12-3.974 8.483-10.134 8.618-17.036zm-162.681 62.648c-2.179 0-3.951-1.772-3.951-3.951v-91.207c0-2.179 1.772-3.952 3.951-3.952h22.584c2.18 0 3.952 1.773 3.952 3.952v91.207c0 2.179-1.772 3.951-3.952 3.951zm140.567-55.966h-5.254c-4.143 0-7.5 3.358-7.5 7.5s3.357 7.5 7.5 7.5c1.907 0 3.694.737 5.04 2.085 1.345 1.343 2.086 3.131 2.086 5.036 0 3.929-3.196 7.126-7.126 7.126h-5.249c-4.143 0-7.5 3.358-7.5 7.5s3.357 7.5 7.5 7.5c1.905 0 3.694.741 5.038 2.084.673.673 1.197 1.458 1.56 2.335.01.026.02.052.03.078.326.834.492 1.718.492 2.628 0 3.929-3.194 7.126-7.12 7.126h-79.69c-3.308 0-6.477-.881-9.267-2.499.276-1.286.43-2.618.43-3.985 0 0 0-91.321-.001-91.346-.063-3.435.609-6.764 2-9.894 2.029-4.565 5.362-8.303 9.643-10.811 9.454-5.546 16.976-13.853 21.752-24.021l6.856-14.609c1.952-4.154 6.18-6.839 10.771-6.839 1.746 0 3.438.379 5.031 1.127 5.932 2.787 8.492 9.876 5.706 15.805l-16.041 34.171c-1.062 2.263-.928 4.908.36 7.051.116.192.184.294.256.403 1.38 2.147 3.757 3.446 6.31 3.446h41.133c1.907 0 3.694.737 5.04 2.086 1.346 1.342 2.086 3.131 2.086 5.035 0 3.932-3.196 7.13-7.126 7.13-4.143 0-7.5 3.358-7.5 7.5s3.357 7.5 7.5 7.5h4.924c2.015 0 3.989.836 5.418 2.293 1.346 1.374 2.066 3.14 2.029 4.978-.075 3.85-3.268 6.981-7.117 6.981z"/><path d="m233.54 101.864c0-15.293-7.487-27.735-16.691-27.735-9.203 0-16.69 12.442-16.69 27.735s7.487 27.735 16.69 27.735c9.204 0 16.691-12.442 16.691-27.735z"/><path d="m128.361 101.864c0-15.293-7.487-27.735-16.691-27.735-9.203 0-16.69 12.442-16.69 27.735s7.487 27.735 16.69 27.735c9.204 0 16.691-12.442 16.691-27.735z"/><path d="m164.26 200.63c26.896 0 51.031-16.022 61.485-40.818 1.609-3.817-.181-8.215-3.997-9.825-3.82-1.607-8.216.181-9.825 3.998-8.104 19.224-26.813 31.645-47.663 31.645-20.851 0-39.56-12.421-47.664-31.645-1.608-3.817-6.01-5.604-9.825-3.998-3.816 1.609-5.606 6.008-3.997 9.825 10.453 24.796 34.588 40.818 61.486 40.818z"/></g></g></svg>