<svg width="134" height="21" viewBox="0 0 134 21" fill="none" xmlns="http://www.w3.org/2000/svg">
<path d="M2.85 16H0.29V1.25H4.42L9.42 13.94V1.25H11.99V16H7.8L2.85 3.43V16ZM21.7373 14.95C22.6773 15.0367 23.4373 15.2633 24.0173 15.63C24.604 15.99 24.8973 16.5967 24.8973 17.45C24.8973 18.4167 24.414 19.1767 23.4473 19.73C22.4807 20.29 21.084 20.57 19.2573 20.57C17.4773 20.57 16.1107 20.3133 15.1573 19.8C14.2107 19.2867 13.7373 18.5967 13.7373 17.73C13.7373 17.4833 13.7673 17.26 13.8273 17.06C13.8873 16.86 13.9607 16.6933 14.0473 16.56L16.4573 16.91C16.4173 16.9633 16.3773 17.0467 16.3373 17.16C16.2973 17.28 16.2773 17.4233 16.2773 17.59C16.2773 18.0033 16.554 18.3 17.1073 18.48C17.6673 18.6667 18.4107 18.76 19.3373 18.76C20.3507 18.76 21.1207 18.6567 21.6473 18.45C22.174 18.2433 22.4373 17.9633 22.4373 17.61C22.4373 17.2633 22.2807 17.04 21.9673 16.94C21.654 16.8467 21.2807 16.78 20.8473 16.74L16.8173 16.37C16.0973 16.2967 15.504 16.0833 15.0373 15.73C14.5773 15.3767 14.3473 14.91 14.3473 14.33C14.3473 13.9033 14.4807 13.5167 14.7473 13.17C15.0207 12.8167 15.2907 12.5567 15.5573 12.39C14.6707 11.6433 14.2273 10.66 14.2273 9.44C14.2273 8.60667 14.4407 7.87333 14.8673 7.24C15.294 6.6 15.8773 6.1 16.6173 5.74C17.3573 5.38 18.1973 5.2 19.1373 5.2C19.944 5.2 20.6673 5.34333 21.3073 5.63C21.954 5.91667 22.444 6.27667 22.7773 6.71L22.9273 5.38H25.2873L24.3273 9.5C24.1473 10.2733 23.8573 10.9667 23.4573 11.58C23.064 12.1933 22.5307 12.6767 21.8573 13.03C21.184 13.3833 20.344 13.56 19.3373 13.56C18.464 13.56 17.6773 13.4333 16.9773 13.18C16.884 13.26 16.804 13.3533 16.7373 13.46C16.6707 13.5667 16.6373 13.68 16.6373 13.8C16.6373 14.0067 16.7307 14.18 16.9173 14.32C17.104 14.4533 17.464 14.5467 17.9973 14.6L21.7373 14.95ZM19.3273 11.53C20.094 11.53 20.704 11.3467 21.1573 10.98C21.6107 10.6133 21.8373 10.0867 21.8373 9.4C21.8373 8.73333 21.6073 8.21 21.1473 7.83C20.694 7.45 20.0907 7.26 19.3373 7.26C18.604 7.26 17.9973 7.45333 17.5173 7.84C17.044 8.22667 16.8073 8.75333 16.8073 9.42C16.8073 10.0933 17.034 10.6133 17.4873 10.98C17.9473 11.3467 18.5607 11.53 19.3273 11.53ZM30.8783 16.2C30.1183 16.2 29.4916 16.0733 28.9983 15.82C28.5049 15.5667 28.1149 15.2333 27.8283 14.82C27.5483 14.4067 27.3483 13.95 27.2283 13.45C27.1149 12.95 27.0583 12.45 27.0583 11.95V5.38H29.6983V11.27C29.6983 11.7433 29.7549 12.1833 29.8683 12.59C29.9883 12.99 30.1983 13.3133 30.4983 13.56C30.7983 13.8067 31.2249 13.93 31.7783 13.93C32.3049 13.93 32.7583 13.7767 33.1383 13.47C33.5249 13.1567 33.8216 12.7633 34.0283 12.29C34.2349 11.8167 34.3383 11.3367 34.3383 10.85V5.38H36.9683V16H34.3383V14.45C33.9583 14.9767 33.4749 15.4 32.8883 15.72C32.3016 16.04 31.6316 16.2 30.8783 16.2ZM40.1897 20.56C39.8764 20.56 39.5964 20.5433 39.3497 20.51C39.103 20.4833 38.9497 20.4567 38.8897 20.43V18.38C38.9697 18.42 39.1164 18.45 39.3297 18.47C39.543 18.4967 39.763 18.51 39.9897 18.51C40.5297 18.51 40.973 18.35 41.3197 18.03C41.6664 17.71 41.9264 17.2967 42.0997 16.79L42.3297 16.12L38.6697 5.38H41.4197L43.7697 13.67L46.0597 5.38H48.7597L45.0397 16.65C44.7797 17.43 44.4664 18.1133 44.0997 18.7C43.733 19.2867 43.2397 19.7433 42.6197 20.07C41.9997 20.3967 41.1897 20.56 40.1897 20.56ZM60.6384 12.65C60.5784 13.2433 60.3318 13.8133 59.8984 14.36C59.4718 14.9067 58.8618 15.3567 58.0684 15.71C57.2818 16.0567 56.3251 16.23 55.1984 16.23C54.0584 16.23 53.0618 15.9967 52.2084 15.53C51.3551 15.0633 50.6884 14.4167 50.2084 13.59C49.7351 12.7567 49.4984 11.8 49.4984 10.72C49.4984 9.62 49.7384 8.65667 50.2184 7.83C50.7051 7.00333 51.3751 6.36 52.2284 5.9C53.0884 5.43333 54.0784 5.2 55.1984 5.2C56.3451 5.2 57.3351 5.43333 58.1684 5.9C59.0084 6.36667 59.6551 7.01667 60.1084 7.85C60.5618 8.68333 60.7884 9.64667 60.7884 10.74C60.7884 11.0867 60.7751 11.3533 60.7484 11.54H52.1584C52.2918 12.36 52.6251 13 53.1584 13.46C53.6918 13.9133 54.4018 14.14 55.2884 14.14C56.2218 14.14 56.8984 13.98 57.3184 13.66C57.7451 13.3333 57.9784 12.9967 58.0184 12.65H60.6384ZM55.2284 7.26C54.4284 7.26 53.7618 7.47 53.2284 7.89C52.6951 8.31 52.3484 8.90333 52.1884 9.67H58.0684C58.0151 9.03 57.7551 8.47 57.2884 7.99C56.8218 7.50333 56.1351 7.26 55.2284 7.26ZM52.0184 3.87L54.3184 1.25H56.0584L58.3684 3.87H56.6384L55.1784 2.16L53.7284 3.87H52.0184ZM62.9567 16V5.38H65.5867V6.98C65.9934 6.42667 66.5101 5.99333 67.1367 5.68C67.7701 5.36 68.4534 5.2 69.1867 5.2C70.4667 5.2 71.4401 5.57 72.1067 6.31C72.7734 7.05 73.1067 8.04 73.1067 9.28V16H70.4667V10.03C70.4667 9.31 70.3067 8.71 69.9867 8.23C69.6667 7.74333 69.0701 7.5 68.1967 7.5C67.4301 7.5 66.8034 7.76667 66.3167 8.3C65.8301 8.83333 65.5867 9.51 65.5867 10.33V16H62.9567ZM83.2425 16H80.6025V1.25H85.3425C86.4692 1.25 87.4258 1.46667 88.2125 1.9C88.9992 2.32667 89.5958 2.91 90.0025 3.65C90.4158 4.38333 90.6225 5.20333 90.6225 6.11C90.6225 7.02333 90.4125 7.86 89.9925 8.62C89.5792 9.38 88.9792 9.99 88.1925 10.45C87.4058 10.9033 86.4558 11.13 85.3425 11.13H83.2425V16ZM85.0525 3.35H83.2425V9.04H85.0525C85.9725 9.04 86.6858 8.78 87.1925 8.26C87.7058 7.73333 87.9625 7.01667 87.9625 6.11C87.9625 5.20333 87.7125 4.51667 87.2125 4.05C86.7125 3.58333 85.9925 3.35 85.0525 3.35ZM92.7028 16V0.369999H95.3328V6.76C95.7328 6.27333 96.2361 5.89333 96.8428 5.62C97.4495 5.34 98.1295 5.2 98.8828 5.2C100.169 5.2 101.153 5.58333 101.833 6.35C102.513 7.11 102.853 8.17 102.853 9.53V16H100.223V10.23C100.223 9.35 100.049 8.67667 99.7028 8.21C99.3628 7.73667 98.7795 7.5 97.9528 7.5C97.1195 7.5 96.4728 7.74 96.0128 8.22C95.5595 8.69333 95.3328 9.31 95.3328 10.07V16H92.7028ZM109.038 16.22C107.851 16.22 106.885 15.9433 106.138 15.39C105.398 14.83 105.028 14.05 105.028 13.05C105.028 12.3233 105.225 11.7267 105.618 11.26C106.018 10.7867 106.555 10.4233 107.228 10.17C107.901 9.91667 108.648 9.75 109.468 9.67C110.681 9.55 111.528 9.43667 112.008 9.33C112.495 9.21667 112.738 9.03667 112.738 8.79V8.77C112.738 8.30333 112.528 7.94333 112.108 7.69C111.688 7.43667 111.095 7.31 110.328 7.31C109.521 7.31 108.901 7.45333 108.468 7.74C108.041 8.02667 107.828 8.47333 107.828 9.08H105.228C105.228 8.24667 105.448 7.54333 105.888 6.97C106.335 6.39 106.945 5.95 107.718 5.65C108.491 5.35 109.368 5.2 110.348 5.2C111.255 5.2 112.088 5.33667 112.848 5.61C113.615 5.88333 114.228 6.29667 114.688 6.85C115.148 7.40333 115.378 8.09333 115.378 8.92V13.76C115.378 14.0133 115.385 14.2633 115.398 14.51C115.418 14.75 115.455 14.9667 115.508 15.16C115.575 15.38 115.655 15.5633 115.748 15.71C115.841 15.85 115.915 15.9467 115.968 16H113.368C113.321 15.9533 113.255 15.8633 113.168 15.73C113.088 15.59 113.015 15.43 112.948 15.25C112.901 15.1167 112.865 14.9767 112.838 14.83C112.445 15.2633 111.915 15.6033 111.248 15.85C110.588 16.0967 109.851 16.22 109.038 16.22ZM109.678 14.15C110.225 14.15 110.731 14.0567 111.198 13.87C111.671 13.6833 112.048 13.3967 112.328 13.01C112.615 12.6167 112.758 12.1133 112.758 11.5V11C112.365 11.1067 111.931 11.1967 111.458 11.27C110.985 11.3367 110.511 11.3933 110.038 11.44C109.251 11.52 108.658 11.66 108.258 11.86C107.865 12.0533 107.668 12.3767 107.668 12.83C107.668 13.71 108.338 14.15 109.678 14.15ZM110.188 19.87C109.761 19.87 109.391 19.7567 109.078 19.53C108.765 19.3033 108.608 18.9867 108.608 18.58C108.608 18.1667 108.765 17.8467 109.078 17.62C109.391 17.3933 109.761 17.28 110.188 17.28C110.601 17.28 110.965 17.3933 111.278 17.62C111.598 17.8467 111.758 18.1667 111.758 18.58C111.758 18.9933 111.598 19.31 111.278 19.53C110.965 19.7567 110.601 19.87 110.188 19.87ZM117.82 16V5.38H120.45V6.77C120.797 6.28333 121.237 5.9 121.77 5.62C122.303 5.34 122.913 5.2 123.6 5.2C124.467 5.2 125.15 5.38667 125.65 5.76C126.15 6.12667 126.51 6.61333 126.73 7.22C127.057 6.60667 127.51 6.11667 128.09 5.75C128.67 5.38333 129.357 5.2 130.15 5.2C130.977 5.2 131.643 5.37 132.15 5.71C132.663 6.05 133.033 6.51667 133.26 7.11C133.493 7.70333 133.61 8.37333 133.61 9.12V16H130.98V9.89C130.98 9.51667 130.947 9.14667 130.88 8.78C130.813 8.41333 130.653 8.11 130.4 7.87C130.153 7.62333 129.753 7.5 129.2 7.5C128.66 7.5 128.23 7.64 127.91 7.92C127.597 8.19333 127.37 8.54333 127.23 8.97C127.097 9.39667 127.03 9.83333 127.03 10.28V16H124.42V9.91C124.42 9.55667 124.387 9.19333 124.32 8.82C124.253 8.44667 124.093 8.13333 123.84 7.88C123.593 7.62667 123.197 7.5 122.65 7.5C122.117 7.5 121.69 7.64 121.37 7.92C121.05 8.19333 120.817 8.55 120.67 8.99C120.523 9.43 120.45 9.89 120.45 10.37V16H117.82Z" fill="#333333"/>
</svg>
