<svg width="134" height="21" viewBox="0 0 134 21" fill="none" xmlns="http://www.w3.org/2000/svg">
<path d="M2.85 16H0.29V1.25H4.42L9.81 14.93L9.42 15.04V1.25H11.99V16H7.8L2.43 2.35L2.85 2.25V16ZM21.7373 14.95C22.364 15.01 22.914 15.1267 23.3873 15.3C23.8607 15.4733 24.2307 15.73 24.4973 16.07C24.764 16.4167 24.8973 16.8767 24.8973 17.45C24.8973 18.09 24.6807 18.6433 24.2473 19.11C23.814 19.5767 23.1773 19.9367 22.3373 20.19C21.504 20.4433 20.4773 20.57 19.2573 20.57C17.484 20.57 16.1207 20.3133 15.1673 19.8C14.214 19.2933 13.7373 18.6033 13.7373 17.73C13.7373 17.4833 13.7673 17.26 13.8273 17.06C13.8873 16.86 13.9607 16.6933 14.0473 16.56L16.4573 16.91C16.4173 16.9633 16.3773 17.0467 16.3373 17.16C16.2973 17.28 16.2773 17.4233 16.2773 17.59C16.2773 18.0033 16.554 18.3 17.1073 18.48C17.6673 18.6667 18.4107 18.76 19.3373 18.76C20.0173 18.76 20.584 18.7133 21.0373 18.62C21.4973 18.5267 21.844 18.3933 22.0773 18.22C22.3173 18.0467 22.4373 17.8433 22.4373 17.61C22.4373 17.2633 22.2807 17.04 21.9673 16.94C21.654 16.84 21.2807 16.7733 20.8473 16.74L16.8173 16.37C16.0973 16.2967 15.504 16.0833 15.0373 15.73C14.5773 15.3767 14.3473 14.91 14.3473 14.33C14.3473 13.9767 14.4407 13.65 14.6273 13.35C14.8207 13.05 15.0407 12.8 15.2873 12.6C15.534 12.3933 15.744 12.2667 15.9173 12.22L17.4173 12.96C17.2773 12.98 17.1107 13.07 16.9173 13.23C16.7307 13.39 16.6373 13.58 16.6373 13.8C16.6373 14.0067 16.7307 14.18 16.9173 14.32C17.104 14.4533 17.464 14.5467 17.9973 14.6L21.7373 14.95ZM22.9273 5.38H25.2873L24.3273 9.5C24.1473 10.2733 23.8573 10.9667 23.4573 11.58C23.0573 12.1933 22.524 12.6767 21.8573 13.03C21.1907 13.3833 20.3507 13.56 19.3373 13.56C18.284 13.56 17.374 13.39 16.6073 13.05C15.8473 12.7033 15.2607 12.22 14.8473 11.6C14.434 10.9733 14.2273 10.2533 14.2273 9.44C14.2273 8.60667 14.4373 7.87333 14.8573 7.24C15.284 6.6 15.8673 6.1 16.6073 5.74C17.354 5.38 18.1973 5.2 19.1373 5.2C19.8973 5.2 20.5807 5.32667 21.1873 5.58C21.794 5.82667 22.2773 6.15 22.6373 6.55C23.004 6.95 23.2007 7.37667 23.2273 7.83L22.6373 7.94L22.9273 5.38ZM19.3273 11.53C19.8407 11.53 20.284 11.4467 20.6573 11.28C21.0307 11.1133 21.3207 10.8733 21.5273 10.56C21.734 10.24 21.8373 9.85333 21.8373 9.4C21.8373 8.95333 21.734 8.57 21.5273 8.25C21.3207 7.93 21.0307 7.68667 20.6573 7.52C20.284 7.34667 19.844 7.26 19.3373 7.26C18.844 7.26 18.4073 7.34667 18.0273 7.52C17.6473 7.69333 17.3473 7.94333 17.1273 8.27C16.914 8.59 16.8073 8.97333 16.8073 9.42C16.8073 9.86667 16.9107 10.25 17.1173 10.57C17.3307 10.8833 17.624 11.1233 17.9973 11.29C18.3773 11.45 18.8207 11.53 19.3273 11.53ZM30.8783 16.2C30.1249 16.2 29.4983 16.0733 28.9983 15.82C28.5049 15.5667 28.1149 15.2333 27.8283 14.82C27.5483 14.4067 27.3483 13.95 27.2283 13.45C27.1149 12.95 27.0583 12.45 27.0583 11.95C27.0583 11.7033 27.0583 11.4467 27.0583 11.18C27.0583 10.9133 27.0583 10.6433 27.0583 10.37V5.38H29.6983V9.96C29.6983 10.2 29.6983 10.43 29.6983 10.65C29.6983 10.87 29.6983 11.0767 29.6983 11.27C29.6983 11.7433 29.7549 12.1833 29.8683 12.59C29.9816 12.99 30.1883 13.3133 30.4883 13.56C30.7949 13.8067 31.2249 13.93 31.7783 13.93C32.3049 13.93 32.7583 13.7767 33.1383 13.47C33.5183 13.1567 33.8116 12.7633 34.0183 12.29C34.2316 11.8167 34.3383 11.3367 34.3383 10.85L35.2383 11.45C35.2383 12.0967 35.1383 12.7067 34.9383 13.28C34.7383 13.8467 34.4483 14.35 34.0683 14.79C33.6883 15.23 33.2283 15.5767 32.6883 15.83C32.1549 16.0767 31.5516 16.2 30.8783 16.2ZM34.3383 16V5.38H36.9683V16H34.3383ZM40.1897 20.56C39.8764 20.56 39.5964 20.5433 39.3497 20.51C39.103 20.4833 38.9497 20.4567 38.8897 20.43V18.38C38.9764 18.42 39.123 18.45 39.3297 18.47C39.543 18.4967 39.763 18.51 39.9897 18.51C40.3564 18.51 40.673 18.4367 40.9397 18.29C41.213 18.1433 41.4464 17.94 41.6397 17.68C41.833 17.4267 41.9864 17.13 42.0997 16.79L42.3297 16.12L38.6697 5.38H41.4197L43.9297 14.24H43.6097L46.0597 5.38H48.7597L45.0397 16.65C44.7797 17.43 44.463 18.1133 44.0897 18.7C43.723 19.2867 43.233 19.7433 42.6197 20.07C42.0064 20.3967 41.1964 20.56 40.1897 20.56ZM50.9484 11.54V9.67H58.3784L58.0784 10.17C58.0784 10.13 58.0784 10.0867 58.0784 10.04C58.0784 9.98667 58.0784 9.94333 58.0784 9.91C58.0784 9.45 57.9751 9.02 57.7684 8.62C57.5618 8.21333 57.2484 7.88667 56.8284 7.64C56.4084 7.38667 55.8751 7.26 55.2284 7.26C54.5884 7.26 54.0318 7.39667 53.5584 7.67C53.0918 7.93667 52.7284 8.32333 52.4684 8.83C52.2151 9.33667 52.0884 9.94333 52.0884 10.65C52.0884 11.3767 52.2118 12.0033 52.4584 12.53C52.7051 13.05 53.0651 13.45 53.5384 13.73C54.0184 14.0033 54.6018 14.14 55.2884 14.14C55.7551 14.14 56.1584 14.0967 56.4984 14.01C56.8384 13.9233 57.1151 13.8067 57.3284 13.66C57.5484 13.5067 57.7118 13.3433 57.8184 13.17C57.9318 12.9967 57.9984 12.8233 58.0184 12.65H60.6384C60.5984 13.0967 60.4484 13.5333 60.1884 13.96C59.9351 14.38 59.5784 14.7633 59.1184 15.11C58.6584 15.45 58.0984 15.7233 57.4384 15.93C56.7851 16.13 56.0384 16.23 55.1984 16.23C54.0584 16.23 53.0618 15.9967 52.2084 15.53C51.3551 15.0633 50.6884 14.4133 50.2084 13.58C49.7351 12.7467 49.4984 11.7933 49.4984 10.72C49.4984 9.62 49.7384 8.65667 50.2184 7.83C50.7051 7.00333 51.3784 6.36 52.2384 5.9C53.0984 5.43333 54.0851 5.2 55.1984 5.2C56.3451 5.2 57.3351 5.43333 58.1684 5.9C59.0084 6.36667 59.6551 7.01667 60.1084 7.85C60.5618 8.67667 60.7884 9.64 60.7884 10.74C60.7884 10.88 60.7851 11.03 60.7784 11.19C60.7718 11.35 60.7618 11.4667 60.7484 11.54H50.9484ZM52.0184 3.87L54.3184 1.25H56.0584L58.3684 3.87H56.6384L54.8184 1.74H55.5384L53.7284 3.87H52.0184ZM70.4667 16V11.29C70.4667 11.0233 70.4667 10.79 70.4667 10.59C70.4667 10.3833 70.4667 10.1967 70.4667 10.03C70.4667 9.55 70.3967 9.12 70.2567 8.74C70.1234 8.35333 69.8901 8.05 69.5567 7.83C69.2301 7.61 68.7767 7.5 68.1967 7.5C67.6901 7.5 67.2401 7.62333 66.8467 7.87C66.4534 8.11 66.1434 8.44333 65.9167 8.87C65.6967 9.29 65.5867 9.77667 65.5867 10.33L64.6967 9.78C64.6967 8.89333 64.8967 8.10667 65.2967 7.42C65.7034 6.72667 66.2467 6.18333 66.9267 5.79C67.6067 5.39667 68.3601 5.2 69.1867 5.2C70.0401 5.2 70.7567 5.36667 71.3367 5.7C71.9234 6.03333 72.3634 6.50667 72.6567 7.12C72.9567 7.73333 73.1067 8.45333 73.1067 9.28C73.1067 9.6 73.1067 9.96 73.1067 10.36C73.1067 10.76 73.1067 11.1533 73.1067 11.54V16H70.4667ZM62.9567 16V5.38H65.5867V16H62.9567ZM83.2425 16H80.6025V1.25H85.3425C86.4758 1.25 87.4325 1.46667 88.2125 1.9C88.9992 2.32667 89.5958 2.91 90.0025 3.65C90.4158 4.38333 90.6225 5.20333 90.6225 6.11C90.6225 7.02333 90.4158 7.86 90.0025 8.62C89.5892 9.38 88.9858 9.99 88.1925 10.45C87.4058 10.9033 86.4558 11.13 85.3425 11.13H83.2425V16ZM83.2425 10.29L82.0525 9.04H85.0525C85.6658 9.04 86.1892 8.92333 86.6225 8.69C87.0558 8.45 87.3858 8.11333 87.6125 7.68C87.8458 7.24 87.9625 6.71667 87.9625 6.11C87.9625 5.50333 87.8492 4.99667 87.6225 4.59C87.4025 4.17667 87.0758 3.86667 86.6425 3.66C86.2092 3.45333 85.6792 3.35 85.0525 3.35H82.0525L83.2425 2.04V10.29ZM100.223 16V12.17C100.223 12.01 100.223 11.81 100.223 11.57C100.223 11.33 100.223 11.0867 100.223 10.84C100.223 10.5933 100.223 10.39 100.223 10.23C100.223 9.35 100.049 8.67667 99.7028 8.21C99.3628 7.73667 98.7795 7.5 97.9528 7.5C97.3995 7.5 96.9261 7.61 96.5328 7.83C96.1461 8.04333 95.8495 8.34333 95.6428 8.73C95.4361 9.11667 95.3328 9.56333 95.3328 10.07L94.3728 9.56C94.3728 8.71333 94.5628 7.96333 94.9428 7.31C95.3295 6.65 95.8628 6.13333 96.5428 5.76C97.2228 5.38667 98.0028 5.2 98.8828 5.2C100.169 5.2 101.153 5.58333 101.833 6.35C102.513 7.11 102.853 8.17 102.853 9.53C102.853 9.87667 102.853 10.29 102.853 10.77C102.853 11.2433 102.853 11.7767 102.853 12.37V16H100.223ZM92.7028 16V0.369999H95.3328V16H92.7028ZM109.038 16.22C108.245 16.22 107.548 16.0967 106.948 15.85C106.348 15.5967 105.878 15.2333 105.538 14.76C105.198 14.2867 105.028 13.7167 105.028 13.05C105.028 12.3233 105.225 11.7267 105.618 11.26C106.018 10.7867 106.555 10.4233 107.228 10.17C107.901 9.91 108.648 9.74333 109.468 9.67C110.681 9.55 111.528 9.43667 112.008 9.33C112.495 9.21667 112.738 9.03667 112.738 8.79C112.738 8.78333 112.738 8.78 112.738 8.78C112.738 8.77333 112.738 8.77 112.738 8.77C112.738 8.30333 112.528 7.94333 112.108 7.69C111.688 7.43667 111.095 7.31 110.328 7.31C109.521 7.31 108.901 7.45333 108.468 7.74C108.041 8.02 107.828 8.46667 107.828 9.08H105.228C105.228 8.24667 105.448 7.54333 105.888 6.97C106.335 6.39 106.945 5.95 107.718 5.65C108.491 5.35 109.368 5.2 110.348 5.2C111.261 5.2 112.098 5.33667 112.858 5.61C113.618 5.88333 114.228 6.29667 114.688 6.85C115.148 7.40333 115.378 8.09333 115.378 8.92C115.378 9.06 115.378 9.2 115.378 9.34C115.378 9.48 115.378 9.62 115.378 9.76V13.76C115.378 14.0133 115.385 14.2633 115.398 14.51C115.418 14.75 115.455 14.9667 115.508 15.16C115.575 15.3733 115.655 15.5533 115.748 15.7C115.841 15.8467 115.915 15.9467 115.968 16H113.368C113.321 15.9533 113.255 15.8633 113.168 15.73C113.088 15.59 113.015 15.43 112.948 15.25C112.881 15.05 112.831 14.8367 112.798 14.61C112.765 14.3767 112.748 14.12 112.748 13.84L113.268 14.2C113.068 14.6067 112.761 14.9633 112.348 15.27C111.941 15.57 111.455 15.8033 110.888 15.97C110.321 16.1367 109.705 16.22 109.038 16.22ZM109.678 14.15C110.225 14.15 110.731 14.0567 111.198 13.87C111.665 13.6833 112.041 13.3967 112.328 13.01C112.615 12.6167 112.758 12.1133 112.758 11.5V10.08L113.398 10.8C112.971 10.96 112.458 11.0933 111.858 11.2C111.258 11.3 110.651 11.38 110.038 11.44C109.251 11.5133 108.658 11.65 108.258 11.85C107.865 12.05 107.668 12.3767 107.668 12.83C107.668 13.27 107.835 13.6 108.168 13.82C108.501 14.04 109.005 14.15 109.678 14.15ZM110.188 19.87C109.761 19.87 109.391 19.7567 109.078 19.53C108.765 19.3033 108.608 18.9867 108.608 18.58C108.608 18.1667 108.765 17.8467 109.078 17.62C109.398 17.3933 109.768 17.28 110.188 17.28C110.608 17.28 110.975 17.3933 111.288 17.62C111.601 17.8467 111.758 18.1667 111.758 18.58C111.758 18.9933 111.601 19.31 111.288 19.53C110.975 19.7567 110.608 19.87 110.188 19.87ZM124.42 16V11.69C124.42 11.2967 124.42 10.9533 124.42 10.66C124.42 10.36 124.42 10.11 124.42 9.91C124.42 9.65 124.403 9.38 124.37 9.1C124.337 8.81333 124.263 8.55 124.15 8.31C124.037 8.07 123.86 7.87667 123.62 7.73C123.387 7.57667 123.063 7.5 122.65 7.5C122.25 7.5 121.91 7.58333 121.63 7.75C121.357 7.91 121.13 8.12667 120.95 8.4C120.777 8.66667 120.65 8.97333 120.57 9.32C120.49 9.66 120.45 10.01 120.45 10.37L119.57 9.78C119.57 8.90667 119.733 8.12667 120.06 7.44C120.387 6.75333 120.85 6.21 121.45 5.81C122.057 5.40333 122.773 5.2 123.6 5.2C124.453 5.2 125.13 5.38 125.63 5.74C126.13 6.09333 126.487 6.57333 126.7 7.18C126.92 7.78667 127.03 8.46667 127.03 9.22C127.03 9.5 127.03 9.87333 127.03 10.34C127.03 10.8 127.03 11.3433 127.03 11.97V16H124.42ZM117.82 16V5.38H120.45V16H117.82ZM130.98 16V11.7C130.98 11.28 130.98 10.9233 130.98 10.63C130.98 10.3367 130.98 10.09 130.98 9.89C130.98 9.61 130.963 9.33 130.93 9.05C130.897 8.76333 130.823 8.50667 130.71 8.28C130.597 8.04667 130.42 7.86 130.18 7.72C129.94 7.57333 129.613 7.5 129.2 7.5C128.793 7.5 128.45 7.58 128.17 7.74C127.897 7.9 127.677 8.11333 127.51 8.38C127.343 8.64667 127.22 8.94667 127.14 9.28C127.067 9.61333 127.03 9.94667 127.03 10.28L126.15 9.7C126.15 8.85333 126.31 8.09 126.63 7.41C126.95 6.73 127.41 6.19333 128.01 5.8C128.61 5.4 129.323 5.2 130.15 5.2C130.983 5.2 131.653 5.37 132.16 5.71C132.667 6.05 133.033 6.51667 133.26 7.11C133.493 7.69667 133.61 8.36667 133.61 9.12C133.61 9.41333 133.61 9.78667 133.61 10.24C133.61 10.6933 133.61 11.23 133.61 11.85V16H130.98Z" fill="white"/>
</svg>
